<mxfile host="app.diagrams.net" modified="2024-04-07T02:50:22.965Z" agent="Mozilla/5.0 (Windows NT 10.0; Win64; x64) AppleWebKit/537.36 (KHTML, like Gecko) Chrome/122.0.0.0 Safari/537.36 OPR/108.0.0.0" etag="5tJUUrPe1AqsSTrnhiHi" version="24.2.2" type="github">
  <diagram name="Page-1" id="e7e014a7-5840-1c2e-5031-d8a46d1fe8dd">
    <mxGraphModel dx="986" dy="559" grid="1" gridSize="10" guides="1" tooltips="1" connect="1" arrows="1" fold="1" page="1" pageScale="1" pageWidth="1169" pageHeight="826" background="none" math="0" shadow="0">
      <root>
        <mxCell id="0" />
        <mxCell id="1" parent="0" />
        <mxCell id="KvyDfqnCCZGzKHxKtFAb-41" value="Técnico" style="swimlane;whiteSpace=wrap" vertex="1" parent="1">
          <mxGeometry x="154.5" y="48" width="280" height="722" as="geometry" />
        </mxCell>
        <mxCell id="KvyDfqnCCZGzKHxKtFAb-42" value="App" style="swimlane;whiteSpace=wrap" vertex="1" parent="1">
          <mxGeometry x="434.5" y="48" width="295.5" height="722" as="geometry" />
        </mxCell>
        <mxCell id="KvyDfqnCCZGzKHxKtFAb-43" value="API" style="swimlane;whiteSpace=wrap" vertex="1" parent="1">
          <mxGeometry x="730" y="48" width="270" height="722" as="geometry" />
        </mxCell>
        <mxCell id="KvyDfqnCCZGzKHxKtFAb-45" value="" style="endArrow=open;strokeColor=#FF0000;endFill=1;rounded=0;entryX=0.5;entryY=0;entryDx=0;entryDy=0;exitX=0.5;exitY=1;exitDx=0;exitDy=0;" edge="1" parent="1" source="KvyDfqnCCZGzKHxKtFAb-54" target="KvyDfqnCCZGzKHxKtFAb-56">
          <mxGeometry relative="1" as="geometry">
            <mxPoint x="335" y="295" as="sourcePoint" />
            <mxPoint x="610" y="390" as="targetPoint" />
            <Array as="points">
              <mxPoint x="582" y="295" />
            </Array>
          </mxGeometry>
        </mxCell>
        <mxCell id="KvyDfqnCCZGzKHxKtFAb-46" value="Carregar Mapa" style="shape=umlFrame;whiteSpace=wrap;html=1;pointerEvents=0;width=250;height=30;" vertex="1" parent="1">
          <mxGeometry x="100" y="10" width="950" height="790" as="geometry" />
        </mxCell>
        <mxCell id="KvyDfqnCCZGzKHxKtFAb-47" value="" style="ellipse;html=1;shape=endState;fillColor=#000000;strokeColor=#ff0000;" vertex="1" parent="1">
          <mxGeometry x="567.25" y="570" width="30" height="30" as="geometry" />
        </mxCell>
        <mxCell id="KvyDfqnCCZGzKHxKtFAb-50" value="&amp;lt;&amp;lt;Precondição&amp;gt;&amp;gt;&lt;div&gt;Ter o aplicativo instalado&lt;br&gt;&lt;/div&gt;" style="shape=note;size=20;whiteSpace=wrap;html=1;" vertex="1" parent="1">
          <mxGeometry x="460" y="88" width="230" height="70" as="geometry" />
        </mxCell>
        <mxCell id="KvyDfqnCCZGzKHxKtFAb-51" value="" style="ellipse;shape=startState;fillColor=#000000;strokeColor=#ff0000;" vertex="1" parent="1">
          <mxGeometry x="260" y="88" width="30" height="30" as="geometry" />
        </mxCell>
        <mxCell id="KvyDfqnCCZGzKHxKtFAb-52" value="" style="edgeStyle=elbowEdgeStyle;elbow=horizontal;verticalAlign=bottom;endArrow=open;endSize=8;strokeColor=#FF0000;endFill=1;rounded=0;exitX=0.507;exitY=0.833;exitDx=0;exitDy=0;exitPerimeter=0;" edge="1" parent="1" source="KvyDfqnCCZGzKHxKtFAb-51" target="KvyDfqnCCZGzKHxKtFAb-53">
          <mxGeometry x="484.5" y="148" as="geometry">
            <mxPoint x="555" y="138" as="targetPoint" />
          </mxGeometry>
        </mxCell>
        <mxCell id="KvyDfqnCCZGzKHxKtFAb-53" value="Inicia o aplicativo" style="whiteSpace=wrap;" vertex="1" parent="1">
          <mxGeometry x="220" y="150" width="110" height="60" as="geometry" />
        </mxCell>
        <mxCell id="KvyDfqnCCZGzKHxKtFAb-54" value="Carrega contêineres " style="whiteSpace=wrap;" vertex="1" parent="1">
          <mxGeometry x="527.25" y="210" width="110" height="60" as="geometry" />
        </mxCell>
        <mxCell id="KvyDfqnCCZGzKHxKtFAb-55" value="" style="endArrow=open;strokeColor=#FF0000;endFill=1;rounded=0;exitX=1;exitY=0.5;exitDx=0;exitDy=0;entryX=0.5;entryY=0;entryDx=0;entryDy=0;" edge="1" parent="1" source="KvyDfqnCCZGzKHxKtFAb-53" target="KvyDfqnCCZGzKHxKtFAb-54">
          <mxGeometry relative="1" as="geometry">
            <mxPoint x="390" y="200" as="sourcePoint" />
            <mxPoint x="621" y="182" as="targetPoint" />
            <Array as="points">
              <mxPoint x="582" y="180" />
            </Array>
          </mxGeometry>
        </mxCell>
        <mxCell id="KvyDfqnCCZGzKHxKtFAb-56" value="Coleta credenciais do dispositivo" style="whiteSpace=wrap;" vertex="1" parent="1">
          <mxGeometry x="527.25" y="300" width="110" height="50" as="geometry" />
        </mxCell>
        <mxCell id="KvyDfqnCCZGzKHxKtFAb-57" value="Valida informações no portal de chamados" style="whiteSpace=wrap;" vertex="1" parent="1">
          <mxGeometry x="810" y="350" width="110" height="50" as="geometry" />
        </mxCell>
        <mxCell id="KvyDfqnCCZGzKHxKtFAb-58" value="Exibe mensagem requisitando contato com administração" style="whiteSpace=wrap;" vertex="1" parent="1">
          <mxGeometry x="527.25" y="490" width="110" height="60" as="geometry" />
        </mxCell>
        <mxCell id="KvyDfqnCCZGzKHxKtFAb-59" value="Carrega mapa com as unidades posicionadas" style="whiteSpace=wrap;" vertex="1" parent="1">
          <mxGeometry x="522.25" y="630" width="120" height="50" as="geometry" />
        </mxCell>
        <mxCell id="KvyDfqnCCZGzKHxKtFAb-60" value="" style="endArrow=open;strokeColor=#FF0000;endFill=1;rounded=0;entryX=0.5;entryY=0;entryDx=0;entryDy=0;exitX=0.5;exitY=1;exitDx=0;exitDy=0;" edge="1" parent="1" source="KvyDfqnCCZGzKHxKtFAb-58" target="KvyDfqnCCZGzKHxKtFAb-47">
          <mxGeometry relative="1" as="geometry">
            <mxPoint x="290" y="840" as="sourcePoint" />
            <mxPoint x="285" y="760" as="targetPoint" />
            <Array as="points" />
          </mxGeometry>
        </mxCell>
        <mxCell id="KvyDfqnCCZGzKHxKtFAb-61" value="" style="endArrow=open;strokeColor=#FF0000;endFill=1;rounded=0;entryX=0.5;entryY=0;entryDx=0;entryDy=0;exitX=0;exitY=0.5;exitDx=0;exitDy=0;" edge="1" parent="1" source="KvyDfqnCCZGzKHxKtFAb-63" target="KvyDfqnCCZGzKHxKtFAb-58">
          <mxGeometry relative="1" as="geometry">
            <mxPoint x="690.0004878048778" y="730" as="sourcePoint" />
            <mxPoint x="682.22" y="510" as="targetPoint" />
            <Array as="points">
              <mxPoint x="582" y="455" />
            </Array>
          </mxGeometry>
        </mxCell>
        <mxCell id="KvyDfqnCCZGzKHxKtFAb-70" value="NÃO" style="edgeLabel;html=1;align=center;verticalAlign=middle;resizable=0;points=[];" vertex="1" connectable="0" parent="KvyDfqnCCZGzKHxKtFAb-61">
          <mxGeometry x="-0.7085" y="1" relative="1" as="geometry">
            <mxPoint x="8" y="-16" as="offset" />
          </mxGeometry>
        </mxCell>
        <mxCell id="KvyDfqnCCZGzKHxKtFAb-63" value="Informações válidas?" style="rhombus;whiteSpace=wrap;html=1;" vertex="1" parent="1">
          <mxGeometry x="810" y="420" width="110" height="70" as="geometry" />
        </mxCell>
        <mxCell id="KvyDfqnCCZGzKHxKtFAb-64" value="" style="endArrow=open;strokeColor=#FF0000;endFill=1;rounded=0;entryX=0.5;entryY=0;entryDx=0;entryDy=0;exitX=0.5;exitY=1;exitDx=0;exitDy=0;" edge="1" parent="1" source="KvyDfqnCCZGzKHxKtFAb-57" target="KvyDfqnCCZGzKHxKtFAb-63">
          <mxGeometry relative="1" as="geometry">
            <mxPoint x="865" y="413" as="sourcePoint" />
            <mxPoint x="874.75" y="393" as="targetPoint" />
            <Array as="points" />
          </mxGeometry>
        </mxCell>
        <mxCell id="KvyDfqnCCZGzKHxKtFAb-66" value="" style="endArrow=open;strokeColor=#FF0000;endFill=1;rounded=0;exitX=1;exitY=0.5;exitDx=0;exitDy=0;entryX=0.5;entryY=0;entryDx=0;entryDy=0;" edge="1" parent="1" source="KvyDfqnCCZGzKHxKtFAb-56" target="KvyDfqnCCZGzKHxKtFAb-57">
          <mxGeometry relative="1" as="geometry">
            <mxPoint x="670" y="430" as="sourcePoint" />
            <mxPoint x="908" y="455" as="targetPoint" />
            <Array as="points">
              <mxPoint x="760" y="325" />
              <mxPoint x="865" y="325" />
            </Array>
          </mxGeometry>
        </mxCell>
        <mxCell id="KvyDfqnCCZGzKHxKtFAb-71" value="Resgata informações sobre as unidades" style="whiteSpace=wrap;" vertex="1" parent="1">
          <mxGeometry x="810" y="520" width="110" height="50" as="geometry" />
        </mxCell>
        <mxCell id="KvyDfqnCCZGzKHxKtFAb-72" value="" style="endArrow=open;strokeColor=#FF0000;endFill=1;rounded=0;exitX=0.5;exitY=1;exitDx=0;exitDy=0;entryX=0.5;entryY=0;entryDx=0;entryDy=0;" edge="1" parent="1" target="KvyDfqnCCZGzKHxKtFAb-71" source="KvyDfqnCCZGzKHxKtFAb-63">
          <mxGeometry relative="1" as="geometry">
            <mxPoint x="700" y="540" as="sourcePoint" />
            <mxPoint x="971" y="670" as="targetPoint" />
          </mxGeometry>
        </mxCell>
        <mxCell id="KvyDfqnCCZGzKHxKtFAb-73" value="SIM" style="edgeLabel;html=1;align=center;verticalAlign=middle;resizable=0;points=[];" vertex="1" connectable="0" parent="KvyDfqnCCZGzKHxKtFAb-72">
          <mxGeometry x="-0.64" relative="1" as="geometry">
            <mxPoint x="15" y="4" as="offset" />
          </mxGeometry>
        </mxCell>
        <mxCell id="KvyDfqnCCZGzKHxKtFAb-74" value="" style="endArrow=open;strokeColor=#FF0000;endFill=1;rounded=0;entryX=1;entryY=0.5;entryDx=0;entryDy=0;exitX=0.5;exitY=1;exitDx=0;exitDy=0;" edge="1" parent="1" source="KvyDfqnCCZGzKHxKtFAb-71" target="KvyDfqnCCZGzKHxKtFAb-59">
          <mxGeometry relative="1" as="geometry">
            <mxPoint x="870.25" y="600" as="sourcePoint" />
            <mxPoint x="642.25" y="635" as="targetPoint" />
            <Array as="points">
              <mxPoint x="865" y="655" />
            </Array>
          </mxGeometry>
        </mxCell>
        <mxCell id="KvyDfqnCCZGzKHxKtFAb-78" value="" style="ellipse;html=1;shape=endState;fillColor=#000000;strokeColor=#ff0000;" vertex="1" parent="1">
          <mxGeometry x="567.25" y="700" width="30" height="30" as="geometry" />
        </mxCell>
        <mxCell id="KvyDfqnCCZGzKHxKtFAb-79" value="" style="endArrow=open;strokeColor=#FF0000;endFill=1;rounded=0;entryX=0.5;entryY=0;entryDx=0;entryDy=0;exitX=0.5;exitY=1;exitDx=0;exitDy=0;" edge="1" parent="1" target="KvyDfqnCCZGzKHxKtFAb-78" source="KvyDfqnCCZGzKHxKtFAb-59">
          <mxGeometry relative="1" as="geometry">
            <mxPoint x="582" y="680" as="sourcePoint" />
            <mxPoint x="285" y="890" as="targetPoint" />
            <Array as="points" />
          </mxGeometry>
        </mxCell>
      </root>
    </mxGraphModel>
  </diagram>
</mxfile>
